<svg id="svg" version="1.1" xmlns="http://www.w3.org/2000/svg" xmlns:xlink="http://www.w3.org/1999/xlink" width="400" height="400" viewBox="0, 0, 400,400"><g id="svgg"><path id="path0" d="M98.000 81.000 C 98.000 81.916,97.851 82.000,96.233 82.000 C 93.850 82.000,93.200 82.309,93.200 83.443 C 93.200 84.197,92.988 84.400,92.200 84.400 C 91.361 84.400,91.200 84.588,91.200 85.573 C 91.200 86.556,91.021 86.767,90.100 86.873 C 89.018 86.998,88.998 87.051,88.884 90.074 C 88.777 92.899,88.696 93.159,87.884 93.274 L 87.000 93.400 86.899 198.900 L 86.799 304.400 87.783 304.400 C 88.740 304.400,88.771 304.492,88.884 307.700 C 88.999 310.970,89.010 311.001,90.100 311.127 C 91.107 311.242,91.200 311.397,91.200 312.947 C 91.200 315.075,91.725 315.600,93.853 315.600 C 95.403 315.600,95.558 315.693,95.673 316.700 L 95.800 317.800 178.700 317.901 L 261.600 318.002 261.600 316.822 C 261.600 315.680,261.669 315.638,263.700 315.521 L 265.800 315.400 266.173 313.300 C 266.497 311.478,266.669 311.200,267.473 311.200 L 268.400 311.200 268.400 296.600 L 268.400 282.000 278.700 282.040 C 284.365 282.062,288.550 282.204,288.000 282.356 C 287.386 282.526,286.951 282.974,286.872 283.516 C 286.797 284.038,286.461 284.400,286.052 284.400 C 285.166 284.400,284.400 285.166,284.400 286.052 C 284.400 286.461,284.038 286.797,283.516 286.872 C 282.335 287.043,282.088 288.119,282.040 293.310 L 282.000 297.619 288.700 297.510 C 295.249 297.402,295.403 297.380,295.525 296.525 C 295.602 295.979,295.979 295.602,296.525 295.525 C 297.137 295.437,297.437 295.077,297.524 294.324 C 297.620 293.493,297.893 293.220,298.724 293.124 C 299.487 293.036,299.837 292.739,299.928 292.100 C 300.004 291.563,300.335 291.200,300.748 291.200 C 301.644 291.200,302.400 290.432,302.400 289.520 C 302.400 289.019,302.704 288.800,303.400 288.800 C 304.244 288.800,304.400 288.613,304.400 287.600 C 304.400 286.533,304.533 286.400,305.600 286.400 C 306.604 286.400,306.800 286.241,306.800 285.428 C 306.800 284.724,307.049 284.420,307.700 284.328 C 308.339 284.237,308.636 283.887,308.724 283.124 C 308.820 282.293,309.093 282.020,309.924 281.924 C 310.756 281.828,311.028 281.556,311.124 280.724 C 311.220 279.893,311.493 279.620,312.324 279.524 L 313.400 279.400 313.400 274.200 L 313.400 269.000 312.324 268.876 C 311.493 268.780,311.220 268.507,311.124 267.676 C 311.028 266.844,310.756 266.572,309.924 266.476 C 309.093 266.380,308.820 266.107,308.724 265.276 C 308.637 264.523,308.337 264.163,307.725 264.075 C 307.179 263.998,306.802 263.621,306.725 263.075 C 306.637 262.457,306.277 262.163,305.500 262.073 C 304.639 261.974,304.400 261.737,304.400 260.981 C 304.400 260.290,304.122 259.945,303.423 259.770 C 302.828 259.621,302.398 259.187,302.323 258.662 C 302.238 258.063,301.872 257.762,301.124 257.676 C 300.293 257.580,300.020 257.307,299.924 256.476 C 299.828 255.644,299.556 255.372,298.724 255.276 C 297.893 255.180,297.620 254.907,297.524 254.076 C 297.438 253.328,297.137 252.962,296.538 252.877 C 296.013 252.802,295.579 252.372,295.430 251.777 L 295.185 250.800 288.581 250.800 L 281.977 250.800 282.088 256.100 L 282.200 261.400 283.276 261.524 C 284.107 261.620,284.380 261.893,284.476 262.724 C 284.572 263.556,284.844 263.828,285.676 263.924 C 286.507 264.020,286.780 264.293,286.876 265.124 C 286.963 265.877,287.263 266.237,287.875 266.325 C 288.420 266.402,288.798 266.779,288.875 267.322 C 288.961 267.924,289.373 268.274,290.200 268.450 C 290.860 268.590,286.225 268.727,279.900 268.753 L 268.400 268.800 268.400 250.600 L 268.400 232.400 290.792 232.400 L 313.185 232.400 313.409 231.500 C 313.532 231.005,313.580 228.620,313.516 226.200 L 313.400 221.800 312.324 221.676 C 311.493 221.580,311.220 221.307,311.124 220.476 L 311.000 219.400 289.700 219.296 L 268.400 219.193 268.400 152.996 L 268.400 86.800 267.427 86.800 C 266.662 86.800,266.426 86.564,266.327 85.700 C 266.228 84.843,265.962 84.573,265.124 84.476 C 264.293 84.380,264.020 84.107,263.924 83.276 C 263.809 82.279,263.646 82.191,261.700 82.079 C 259.772 81.968,259.600 81.878,259.600 80.979 L 259.600 80.000 178.800 80.000 L 98.000 80.000 98.000 81.000 M255.200 156.200 L 255.200 219.200 246.100 219.160 C 241.095 219.138,237.450 218.996,238.000 218.844 C 238.573 218.685,239.050 218.224,239.117 217.765 C 239.185 217.303,239.737 216.773,240.417 216.516 C 241.189 216.225,241.600 215.789,241.600 215.263 C 241.600 214.735,241.906 214.411,242.484 214.328 C 243.688 214.154,243.913 213.086,243.960 207.329 C 244.011 201.055,244.143 201.200,238.404 201.200 C 233.372 201.200,232.800 201.347,232.800 202.643 C 232.800 203.440,232.599 203.600,231.600 203.600 C 230.587 203.600,230.400 203.756,230.400 204.600 C 230.400 205.400,230.200 205.600,229.400 205.600 C 228.556 205.600,228.400 205.787,228.400 206.800 C 228.400 207.867,228.267 208.000,227.200 208.000 C 226.133 208.000,226.000 208.133,226.000 209.200 C 226.000 210.267,225.867 210.400,224.800 210.400 C 223.787 210.400,223.600 210.556,223.600 211.400 C 223.600 212.200,223.400 212.400,222.600 212.400 C 221.756 212.400,221.600 212.587,221.600 213.600 C 221.600 214.667,221.467 214.800,220.400 214.800 C 219.395 214.800,219.200 214.959,219.200 215.773 C 219.200 216.538,218.964 216.774,218.100 216.873 C 217.236 216.973,216.973 217.236,216.873 218.100 C 216.774 218.964,216.538 219.200,215.773 219.200 C 214.959 219.200,214.800 219.395,214.800 220.400 C 214.800 221.469,214.668 221.600,213.588 221.600 L 212.377 221.600 212.488 226.900 L 212.600 232.200 213.676 232.324 C 214.507 232.420,214.780 232.693,214.876 233.524 C 214.964 234.287,215.261 234.637,215.900 234.728 C 216.437 234.804,216.800 235.135,216.800 235.548 C 216.800 236.444,217.568 237.200,218.480 237.200 C 218.981 237.200,219.200 237.504,219.200 238.200 C 219.200 239.044,219.387 239.200,220.400 239.200 C 221.467 239.200,221.600 239.333,221.600 240.400 C 221.600 241.413,221.756 241.600,222.600 241.600 C 223.296 241.600,223.600 241.819,223.600 242.320 C 223.600 243.232,224.356 244.000,225.252 244.000 C 225.665 244.000,225.996 244.363,226.072 244.900 C 226.163 245.539,226.513 245.836,227.276 245.924 C 228.107 246.020,228.380 246.293,228.476 247.124 C 228.563 247.877,228.863 248.237,229.475 248.325 C 230.021 248.402,230.398 248.779,230.475 249.325 C 230.597 250.180,230.751 250.202,237.312 250.310 L 244.023 250.419 243.912 245.110 L 243.800 239.800 242.724 239.676 C 241.893 239.580,241.620 239.307,241.524 238.476 C 241.428 237.644,241.156 237.372,240.324 237.276 C 239.493 237.180,239.220 236.907,239.124 236.076 C 239.038 235.328,238.737 234.962,238.138 234.877 C 237.620 234.803,237.180 234.374,237.037 233.804 C 236.874 233.155,236.449 232.800,235.699 232.686 C 235.095 232.595,239.235 232.493,244.900 232.460 L 255.200 232.400 255.200 250.596 L 255.200 268.793 233.900 268.896 L 212.600 269.000 212.600 274.200 L 212.600 279.400 213.700 279.527 C 214.428 279.610,214.800 279.887,214.800 280.347 C 214.800 281.985,214.985 282.000,235.480 282.000 L 255.200 282.000 255.200 293.400 L 255.200 304.800 178.846 304.800 L 102.492 304.800 102.217 302.600 C 101.969 300.613,101.848 300.400,100.971 300.400 L 100.000 300.400 100.000 199.027 L 100.000 97.653 101.100 97.527 C 102.126 97.409,102.208 97.259,102.321 95.300 L 102.442 93.200 178.821 93.200 L 255.200 93.200 255.200 156.200 M118.668 152.265 C 118.521 152.413,118.400 152.841,118.400 153.217 C 118.400 153.656,117.971 153.986,117.200 154.140 L 116.000 154.380 116.000 158.590 L 116.000 162.800 117.000 162.800 C 117.844 162.800,118.000 162.987,118.000 164.000 L 118.000 165.200 178.600 165.200 L 239.200 165.200 239.200 164.000 C 239.200 162.933,239.333 162.800,240.400 162.800 L 241.600 162.800 241.600 158.632 L 241.600 154.464 240.424 154.205 C 239.623 154.029,239.209 153.669,239.124 153.074 L 239.000 152.200 178.968 152.099 C 145.950 152.043,118.815 152.118,118.668 152.265 M118.267 183.467 C 118.120 183.613,118.000 184.153,118.000 184.667 C 118.000 185.396,117.781 185.600,117.000 185.600 C 116.001 185.600,116.000 185.605,116.000 189.520 C 116.000 194.012,116.211 194.400,118.653 194.400 C 120.203 194.400,120.358 194.493,120.473 195.500 L 120.600 196.600 161.800 196.600 L 203.000 196.600 203.127 195.500 C 203.242 194.497,203.400 194.399,204.927 194.394 C 207.651 194.384,207.795 194.148,207.798 189.716 L 207.800 185.800 206.700 185.673 C 205.779 185.567,205.600 185.356,205.600 184.373 L 205.600 183.200 162.067 183.200 C 138.123 183.200,118.413 183.320,118.267 183.467 " stroke="none" fill="#3cac34" fill-rule="evenodd"></path><path id="path1" d="" stroke="none" fill="#40ac34" fill-rule="evenodd"></path><path id="path2" d="" stroke="none" fill="#40ac34" fill-rule="evenodd"></path><path id="path3" d="" stroke="none" fill="#40ac34" fill-rule="evenodd"></path><path id="path4" d="" stroke="none" fill="#40ac34" fill-rule="evenodd"></path></g></svg>