<svg id="svg" version="1.1" xmlns="http://www.w3.org/2000/svg" xmlns:xlink="http://www.w3.org/1999/xlink" width="400" height="402.247191011236" viewBox="0, 0, 400,402.247191011236"><g id="svgg"><path id="path0" d="M256.501 82.281 C 255.969 82.384,255.504 82.844,255.363 83.405 C 255.199 84.057,254.792 84.393,254.062 84.477 C 253.238 84.572,252.972 84.847,252.873 85.700 C 252.774 86.564,252.538 86.800,251.773 86.800 C 251.009 86.800,250.800 87.009,250.800 87.773 C 250.800 88.538,250.564 88.774,249.700 88.873 L 248.600 89.000 248.494 100.100 L 248.387 111.200 224.426 111.200 C 198.900 111.200,199.200 111.183,199.200 112.643 C 199.200 113.440,198.999 113.600,198.000 113.600 C 196.987 113.600,196.800 113.756,196.800 114.600 C 196.800 115.388,196.597 115.600,195.843 115.600 C 194.709 115.600,194.400 116.250,194.400 118.633 C 194.400 120.251,194.316 120.400,193.400 120.400 L 192.400 120.400 192.400 157.400 L 192.400 194.400 175.400 194.400 L 158.400 194.400 158.400 191.190 L 158.400 187.980 157.200 187.740 C 156.045 187.509,156.000 187.419,156.000 185.350 C 156.000 183.336,155.938 183.200,155.021 183.200 C 154.122 183.200,154.032 183.028,153.921 181.100 C 153.808 179.141,153.726 178.991,152.700 178.873 C 151.779 178.767,151.600 178.556,151.600 177.573 C 151.600 176.597,151.437 176.400,150.627 176.400 C 149.862 176.400,149.626 176.164,149.527 175.300 C 149.427 174.436,149.164 174.173,148.300 174.073 C 147.436 173.974,147.200 173.738,147.200 172.973 C 147.200 172.159,147.005 172.000,146.000 172.000 C 144.933 172.000,144.800 171.867,144.800 170.800 C 144.800 169.801,144.640 169.600,143.843 169.600 C 143.157 169.600,142.816 169.318,142.636 168.600 C 142.410 167.701,142.184 167.600,140.392 167.600 C 138.740 167.600,138.400 167.477,138.400 166.880 C 138.400 165.574,137.536 165.200,134.520 165.200 C 132.256 165.200,131.600 165.072,131.600 164.629 C 131.600 162.953,130.744 162.800,121.400 162.800 C 112.074 162.800,111.200 162.955,111.200 164.612 C 111.200 165.027,110.420 165.196,108.100 165.283 C 105.049 165.398,104.998 165.417,104.873 166.500 C 104.753 167.549,104.646 167.600,102.581 167.600 C 100.604 167.600,100.393 167.687,100.164 168.600 C 99.984 169.318,99.643 169.600,98.957 169.600 C 98.160 169.600,98.000 169.801,98.000 170.800 C 98.000 171.867,97.867 172.000,96.800 172.000 C 95.795 172.000,95.600 172.159,95.600 172.973 C 95.600 173.738,95.364 173.974,94.500 174.073 C 93.636 174.173,93.373 174.436,93.273 175.300 C 93.174 176.164,92.938 176.400,92.173 176.400 C 91.363 176.400,91.200 176.597,91.200 177.573 C 91.200 178.556,91.021 178.767,90.100 178.873 C 89.074 178.991,88.992 179.141,88.879 181.100 C 88.768 183.028,88.678 183.200,87.779 183.200 C 86.862 183.200,86.800 183.336,86.800 185.350 C 86.800 187.421,86.756 187.509,85.595 187.741 L 84.389 187.982 84.495 201.091 L 84.600 214.200 85.700 214.327 C 86.750 214.447,86.800 214.553,86.800 216.627 C 86.800 218.678,86.856 218.800,87.800 218.800 C 88.728 218.800,88.800 218.939,88.800 220.720 C 88.800 222.750,89.296 223.600,90.480 223.600 C 90.981 223.600,91.200 223.904,91.200 224.600 C 91.200 225.400,91.400 225.600,92.200 225.600 C 93.044 225.600,93.200 225.787,93.200 226.800 C 93.200 227.867,93.333 228.000,94.400 228.000 C 95.413 228.000,95.600 228.156,95.600 229.000 C 95.600 229.844,95.787 230.000,96.800 230.000 C 97.867 230.000,98.000 230.133,98.000 231.200 C 98.000 232.267,98.133 232.400,99.200 232.400 C 100.204 232.400,100.400 232.559,100.400 233.371 C 100.400 234.247,100.613 234.369,102.578 234.615 C 104.395 234.842,104.776 235.029,104.878 235.743 C 104.993 236.549,105.252 236.607,109.275 236.713 L 113.549 236.827 113.675 237.913 L 113.800 239.000 121.400 239.000 L 129.000 239.000 129.125 237.913 L 129.251 236.827 133.525 236.713 C 137.548 236.607,137.807 236.549,137.922 235.743 C 138.024 235.029,138.405 234.842,140.222 234.615 C 142.187 234.369,142.400 234.247,142.400 233.371 C 142.400 232.559,142.596 232.400,143.600 232.400 C 144.667 232.400,144.800 232.267,144.800 231.200 C 144.800 230.133,144.933 230.000,146.000 230.000 C 147.005 230.000,147.200 229.841,147.200 229.027 C 147.200 228.262,147.436 228.026,148.300 227.927 C 149.164 227.827,149.427 227.564,149.527 226.700 C 149.626 225.836,149.862 225.600,150.627 225.600 C 151.398 225.600,151.600 225.393,151.600 224.600 C 151.600 223.904,151.819 223.600,152.320 223.600 C 153.504 223.600,154.000 222.750,154.000 220.720 C 154.000 218.939,154.072 218.800,155.000 218.800 C 155.944 218.800,156.000 218.678,156.000 216.627 C 156.000 214.553,156.050 214.447,157.100 214.327 C 158.190 214.201,158.201 214.170,158.316 210.900 L 158.432 207.600 175.416 207.600 L 192.400 207.600 192.400 244.592 L 192.400 281.585 193.400 281.836 C 194.199 282.036,194.401 282.339,194.405 283.343 C 194.415 285.557,194.812 286.400,195.847 286.400 C 196.597 286.400,196.800 286.613,196.800 287.400 C 196.800 288.344,196.922 288.400,198.973 288.400 C 201.047 288.400,201.153 288.450,201.273 289.500 L 201.400 290.600 223.900 290.703 L 246.400 290.807 246.400 298.603 L 246.400 306.400 247.400 306.400 C 248.388 306.400,248.400 306.440,248.400 309.800 L 248.400 313.200 249.600 313.200 C 250.667 313.200,250.800 313.333,250.800 314.400 C 250.800 315.404,250.959 315.600,251.772 315.600 C 252.476 315.600,252.780 315.849,252.872 316.500 C 252.985 317.297,253.263 317.414,255.300 317.520 C 257.555 317.638,257.600 317.663,257.600 318.823 L 257.600 320.006 283.100 319.903 L 308.600 319.800 308.725 318.720 C 308.840 317.721,309.004 317.631,310.908 317.520 C 312.722 317.414,312.995 317.283,313.198 316.415 C 313.343 315.797,313.797 315.343,314.415 315.198 C 315.261 315.000,315.417 314.708,315.520 313.130 C 315.630 311.452,315.743 311.271,316.820 311.056 L 318.000 310.820 318.000 284.242 L 318.000 257.664 316.800 257.400 C 315.870 257.196,315.600 256.919,315.600 256.168 C 315.600 255.402,315.391 255.200,314.600 255.200 C 313.756 255.200,313.600 255.013,313.600 254.000 C 313.600 252.939,313.464 252.800,312.427 252.800 C 311.444 252.800,311.233 252.621,311.127 251.700 C 311.009 250.674,310.859 250.592,308.900 250.479 C 306.972 250.368,306.800 250.278,306.800 249.379 L 306.800 248.400 282.408 248.400 L 258.015 248.400 257.764 249.400 C 257.541 250.289,257.305 250.400,255.637 250.400 C 253.648 250.400,252.800 250.902,252.800 252.080 C 252.800 252.581,252.496 252.800,251.800 252.800 C 250.961 252.800,250.800 252.988,250.800 253.973 C 250.800 254.956,250.621 255.167,249.700 255.273 C 248.618 255.398,248.598 255.451,248.484 258.474 C 248.377 261.299,248.296 261.559,247.484 261.674 C 246.610 261.799,246.599 261.893,246.492 269.700 L 246.383 277.600 227.242 277.600 L 208.100 277.600 207.860 276.400 C 207.669 275.447,207.412 275.200,206.610 275.200 L 205.600 275.200 205.600 241.400 L 205.600 207.600 227.000 207.600 L 248.400 207.600 248.400 218.320 C 248.400 229.441,248.480 230.000,250.080 230.000 C 250.613 230.000,250.800 230.311,250.800 231.200 C 250.800 232.213,250.956 232.400,251.800 232.400 C 252.400 232.400,252.800 232.629,252.800 232.971 C 252.800 234.057,254.019 234.800,255.801 234.800 C 257.304 234.800,257.562 234.924,257.672 235.700 L 257.800 236.600 282.300 236.703 L 306.800 236.806 306.800 235.803 C 306.800 234.890,306.953 234.800,308.500 234.796 C 311.904 234.787,313.200 234.388,313.200 233.348 C 313.200 232.702,313.429 232.400,313.920 232.400 C 315.071 232.400,315.600 231.564,315.600 229.747 C 315.600 228.197,315.693 228.042,316.700 227.927 L 317.800 227.800 317.800 201.000 L 317.800 174.200 316.700 174.073 C 315.665 173.954,315.600 173.830,315.600 171.963 C 315.600 170.088,315.536 169.967,314.422 169.744 C 313.619 169.584,313.205 169.237,313.122 168.654 C 313.018 167.926,312.694 167.782,310.925 167.680 C 309.003 167.569,308.840 167.480,308.725 166.480 L 308.600 165.400 283.100 165.297 L 257.600 165.194 257.600 166.377 C 257.600 167.537,257.555 167.562,255.300 167.680 C 253.263 167.786,252.985 167.903,252.872 168.700 C 252.780 169.351,252.476 169.600,251.772 169.600 C 250.964 169.600,250.800 169.797,250.800 170.773 C 250.800 171.756,250.621 171.967,249.700 172.073 L 248.600 172.200 248.494 183.300 L 248.387 194.400 226.994 194.400 L 205.600 194.400 205.600 160.628 L 205.600 126.856 206.500 126.728 C 207.078 126.646,207.446 126.278,207.528 125.700 L 207.656 124.800 228.028 124.800 L 248.400 124.800 248.400 134.800 L 248.400 144.800 249.600 144.800 C 250.770 144.800,250.800 144.849,250.800 146.761 C 250.800 148.580,250.887 148.752,252.000 149.140 C 252.779 149.412,253.200 149.832,253.200 150.336 C 253.200 151.597,253.264 151.600,282.833 151.600 L 311.200 151.600 311.200 150.421 C 311.200 149.281,311.269 149.238,313.300 149.121 L 315.400 149.000 315.521 146.900 C 315.638 144.869,315.681 144.800,316.821 144.800 L 318.000 144.800 318.000 117.429 C 318.000 88.269,318.034 88.800,316.171 88.800 C 315.829 88.800,315.600 88.400,315.600 87.800 C 315.600 87.007,315.398 86.800,314.627 86.800 C 313.862 86.800,313.626 86.564,313.527 85.700 C 313.407 84.660,313.275 84.593,311.125 84.481 C 308.985 84.369,308.842 84.297,308.725 83.281 L 308.600 82.200 283.000 82.153 C 268.920 82.127,256.995 82.185,256.501 82.281 M302.605 96.500 C 302.822 96.995,303.405 97.458,303.900 97.528 L 304.800 97.656 304.800 118.028 L 304.800 138.400 283.200 138.400 L 261.600 138.400 261.600 117.000 L 261.600 95.600 281.905 95.600 L 302.210 95.600 302.605 96.500 M125.005 177.300 C 125.358 178.104,125.727 178.212,128.475 178.316 C 131.487 178.430,131.553 178.455,131.675 179.516 C 131.791 180.521,131.952 180.609,133.875 180.720 C 135.797 180.831,135.960 180.920,136.075 181.920 C 136.173 182.763,136.442 183.028,137.300 183.127 C 138.164 183.226,138.400 183.462,138.400 184.227 C 138.400 184.978,138.612 185.200,139.327 185.200 C 140.131 185.200,140.303 185.478,140.627 187.300 C 140.935 189.036,141.156 189.422,141.900 189.528 C 142.668 189.637,142.801 189.900,142.806 191.328 C 142.813 193.282,143.104 193.851,144.200 194.059 C 144.958 194.202,145.006 194.572,145.109 201.078 L 145.219 207.945 144.109 208.073 C 143.072 208.192,142.992 208.337,142.879 210.300 C 142.782 211.986,142.620 212.400,142.059 212.400 C 140.925 212.400,140.400 213.248,140.400 215.080 C 140.400 216.648,140.312 216.800,139.400 216.800 C 138.556 216.800,138.400 216.987,138.400 218.000 C 138.400 219.173,138.355 219.200,136.408 219.200 C 134.628 219.200,134.389 219.305,134.170 220.177 C 133.999 220.857,133.602 221.191,132.862 221.277 C 132.043 221.372,131.771 221.648,131.675 222.484 C 131.552 223.554,131.506 223.570,128.275 223.684 C 125.032 223.799,124.999 223.811,124.873 224.900 L 124.747 226.000 121.400 226.000 L 118.053 226.000 117.927 224.900 C 117.801 223.811,117.768 223.799,114.525 223.684 C 111.294 223.570,111.248 223.554,111.125 222.484 C 111.029 221.648,110.757 221.372,109.938 221.277 C 109.198 221.191,108.801 220.857,108.630 220.177 C 108.411 219.305,108.172 219.200,106.392 219.200 C 104.445 219.200,104.400 219.173,104.400 218.000 C 104.400 216.987,104.244 216.800,103.400 216.800 C 102.503 216.800,102.400 216.638,102.400 215.233 C 102.400 213.053,102.067 212.400,100.957 212.400 C 100.096 212.400,100.000 212.227,100.000 210.680 C 100.000 208.833,99.475 208.000,98.311 208.000 C 97.126 208.000,97.411 194.284,98.600 194.059 C 99.696 193.851,99.987 193.282,99.994 191.328 C 99.999 189.900,100.132 189.637,100.900 189.528 C 101.644 189.422,101.865 189.036,102.173 187.300 C 102.497 185.478,102.669 185.200,103.473 185.200 C 104.195 185.200,104.400 184.979,104.400 184.200 C 104.400 183.356,104.587 183.200,105.600 183.200 C 106.662 183.200,106.800 183.064,106.800 182.021 C 106.800 180.881,106.869 180.838,108.900 180.721 C 110.850 180.609,111.009 180.523,111.125 179.516 C 111.247 178.455,111.313 178.430,114.325 178.316 C 117.073 178.212,117.442 178.104,117.795 177.300 C 118.157 176.474,118.454 176.400,121.400 176.400 C 124.346 176.400,124.643 176.474,125.005 177.300 M302.473 179.500 C 302.573 180.364,302.836 180.627,303.700 180.727 L 304.800 180.853 304.800 201.000 L 304.800 221.147 303.700 221.273 C 302.836 221.373,302.573 221.636,302.473 222.500 L 302.347 223.600 283.173 223.600 L 264.000 223.600 264.000 222.590 C 264.000 221.788,263.753 221.531,262.800 221.340 L 261.600 221.100 261.600 200.950 C 261.600 181.813,261.636 180.800,262.320 180.800 C 263.242 180.800,264.000 180.042,264.000 179.120 C 264.000 178.437,264.977 178.400,283.173 178.400 L 302.347 178.400 302.473 179.500 M302.473 262.700 C 302.573 263.564,302.836 263.827,303.700 263.927 L 304.800 264.053 304.800 284.227 L 304.800 304.400 303.600 304.400 C 302.533 304.400,302.400 304.533,302.400 305.600 L 302.400 306.800 282.000 306.800 L 261.600 306.800 261.600 304.600 C 261.600 302.520,261.545 302.400,260.600 302.400 L 259.600 302.400 259.600 284.200 L 259.600 266.000 260.600 266.000 C 261.386 266.000,261.600 265.797,261.600 265.050 C 261.600 264.314,261.871 264.046,262.800 263.860 C 263.753 263.669,264.000 263.412,264.000 262.610 L 264.000 261.600 283.173 261.600 L 302.347 261.600 302.473 262.700 " stroke="none" fill="#3cac34" fill-rule="evenodd"></path><path id="path1" d="" stroke="none" fill="#40ac34" fill-rule="evenodd"></path><path id="path2" d="" stroke="none" fill="#40ac34" fill-rule="evenodd"></path><path id="path3" d="" stroke="none" fill="#40ac34" fill-rule="evenodd"></path><path id="path4" d="" stroke="none" fill="#40ac34" fill-rule="evenodd"></path></g></svg>